<?xml version="1.0" standalone="no"?>
<!DOCTYPE svg PUBLIC "-//W3C//DTD SVG 20010904//EN"
 "https://www.w3.org/TR/2001/REC-SVG-20010904/DTD/svg10.dtd">
<svg version="1.0" xmlns="http://www.w3.org/2000/svg"
 width="400.000000pt" height="394.000000pt" viewBox="0 0 400.000000 394.000000"
 preserveAspectRatio="xMidYMid meet">
<metadata>
Created by potrace 1.16, written by Peter Selinger 2001-2019
</metadata>
<g transform="translate(0.000000,394.000000) scale(0.100000,-0.100000)"
fill="#000000" stroke="none">
<path d="M1983 3928 c-21 -27 -336 -574 -336 -583 0 -6 45 -88 101 -183 56
-95 102 -175 102 -178 0 -2 -14 -29 -31 -60 l-31 -55 -79 133 c-43 73 -82 139
-86 146 -6 9 -35 -32 -93 -132 l-85 -146 -152 0 c-84 0 -153 -2 -153 -5 0 -3
21 -43 47 -88 26 -45 47 -85 45 -89 -1 -5 2 -8 6 -8 5 0 19 -18 31 -41 l23
-40 -43 3 -43 3 -104 178 -104 177 -349 0 c-260 0 -349 -3 -349 -12 0 -6 72
-138 161 -294 117 -206 166 -284 182 -288 12 -3 108 -6 214 -6 l191 0 31 -55
c17 -30 31 -57 31 -60 0 -3 -79 -5 -175 -5 -96 0 -175 -2 -175 -5 0 -3 36 -68
80 -145 44 -77 80 -144 80 -149 0 -10 -123 -225 -142 -248 -8 -10 25 -13 160
-13 l171 0 -20 -35 -21 -35 -207 0 -207 0 -91 -157 c-50 -87 -130 -225 -177
-306 -47 -82 -86 -153 -86 -158 0 -5 137 -9 340 -9 l339 0 107 180 106 180 54
0 c64 0 70 22 -47 -177 -43 -75 -79 -137 -79 -139 0 -2 78 -4 174 -4 l174 0
20 -32 c10 -18 43 -75 73 -125 29 -51 56 -93 59 -93 3 0 43 66 88 145 46 80
88 142 93 139 5 -3 18 -22 28 -42 l18 -37 -104 -176 -103 -176 174 -309 c96
-170 179 -309 186 -309 17 0 362 625 355 644 -3 9 -49 89 -101 178 l-95 162
19 36 18 37 83 -142 c46 -77 86 -138 90 -135 3 4 40 66 81 138 l75 132 163 5
162 5 -47 80 c-25 44 -65 112 -89 150 -23 39 -41 71 -40 71 0 1 32 -1 70 -5
l69 -6 101 -172 101 -173 343 0 c285 0 342 2 342 14 0 7 -51 103 -113 212 -62
110 -135 238 -162 287 l-49 87 -213 0 -213 0 -20 33 -20 32 164 3 163 2 -89
158 c-103 180 -103 144 -4 309 l55 93 -164 2 -164 3 35 58 36 57 202 0 203 0
176 293 c98 162 177 299 177 305 0 9 -89 12 -339 12 l-339 0 -106 -180 c-99
-166 -109 -180 -140 -185 -80 -16 -80 -11 5 130 43 72 78 135 79 141 0 7 -37
9 -114 6 -63 -2 -135 -1 -159 2 l-44 7 -83 136 -83 136 -24 -39 c-13 -21 -49
-83 -80 -136 -31 -54 -59 -98 -62 -98 -4 0 -17 20 -29 44 l-24 44 90 154 c49
84 96 167 105 185 l17 31 -109 179 c-225 372 -247 407 -257 410 -6 2 -16 -2
-21 -9z m-317 -1071 c17 -29 98 -166 179 -304 82 -139 152 -253 155 -253 3 0
66 102 139 228 212 360 225 382 231 382 3 0 23 -30 46 -67 l40 -68 97 -5 98
-5 -186 -313 c-102 -172 -185 -315 -185 -318 0 -3 162 -4 360 -2 197 1 362 -1
365 -4 4 -3 -14 -37 -39 -74 l-45 -67 27 -46 c14 -25 34 -59 44 -76 10 -16 18
-33 18 -37 0 -4 -164 -9 -365 -10 l-366 -3 170 -287 c93 -158 177 -300 186
-317 l15 -31 -88 6 -88 7 -48 -83 c-26 -45 -49 -80 -51 -78 -2 2 -85 141 -183
308 -99 167 -184 306 -190 308 -9 3 -75 -105 -303 -492 -35 -60 -69 -111 -75
-113 -5 -2 -30 31 -54 73 l-44 77 -88 -7 -88 -6 19 38 c11 20 94 163 185 317
l166 280 -369 5 -370 5 49 79 49 80 -40 73 -40 73 323 0 c178 0 339 3 359 6
l36 6 -137 232 c-75 127 -158 266 -184 309 -25 43 -46 80 -46 82 0 2 44 6 97
7 l97 3 39 68 c21 37 42 67 45 67 4 0 21 -24 38 -53z"/>
</g>
</svg>
